<svg xmlns="http://www.w3.org/2000/svg" aria-hidden="true" style="position:absolute;width:0;height:0;overflow:hidden">
  <defs>
    <symbol id="icon-expand" viewBox="0 0 38 32">
      <path d="M38 1.12v9.2L19.68 29.68 1.28 10.32v-9.2l18.4 19.36L38 1.12z" />
    </symbol>
    <symbol id="icon-dollar" viewBox="0 0 32 32">
      <path
        d="M20.64 17.016c-.41-.423-.916-.798-1.514-1.126s-1.421-.686-2.473-1.071c-1.05-.385-1.793-.794-2.233-1.224-.439-.432-.657-1.003-.657-1.718 0-.794.221-1.405.665-1.833.442-.426 1.058-.64 1.844-.64.796 0 1.426.298 1.889.893.463.594.695 1.408.695 2.442h2.979c0-1.609-.391-2.915-1.171-3.92-.779-1.005-1.883-1.611-3.31-1.815V4.297h-1.97v2.682c-1.421.165-2.543.685-3.371 1.563-.831.878-1.244 1.997-1.244 3.359 0 2.01.957 3.528 2.868 4.554.574.312 1.379.649 2.412 1.015 1.035.365 1.771.776 2.215 1.23s.665 1.032.665 1.727c0 .748-.244 1.346-.732 1.797-.488.45-1.2.677-2.135.677-.952 0-1.689-.285-2.21-.851-.521-.565-.781-1.366-.781-2.398h-2.992c0 1.624.437 2.929 1.311 3.913.873.984 2.123 1.568 3.746 1.748V27.7h1.956v-2.4c1.518-.155 2.701-.663 3.55-1.526.848-.861 1.274-1.985 1.274-3.372 0-.738-.111-1.38-.332-1.931a4.464 4.464 0 0 0-.943-1.455zM16 .361C7.376.361.36 7.377.36 16.001S7.376 31.641 16 31.641s15.64-7.016 15.64-15.64S24.624.361 16 .361zm0 29.293C8.471 29.654 2.346 23.529 2.346 16S8.471 2.346 16 2.346 29.654 8.471 29.654 16 23.529 29.654 16 29.654z" />
      <path
        d="M16 32C7.177 32 0 24.822 0 16S7.178 0 16 0c8.823 0 16 7.178 16 16s-7.178 16-16 16zM16 .721C7.575.721.721 7.575.721 16S7.575 31.279 16 31.279 31.279 24.425 31.279 16 24.425.721 16 .721zm0 29.294c-7.728 0-14.014-6.287-14.014-14.014S8.273 1.987 16 1.987c7.727 0 14.014 6.287 14.014 14.014S23.727 30.015 16 30.015zm0-27.308C8.67 2.707 2.707 8.671 2.707 16S8.671 29.293 16 29.293c7.33 0 13.293-5.964 13.293-13.293S23.329 2.707 16 2.707zm1.452 25.354h-2.677v-2.43c-1.554-.229-2.783-.843-3.656-1.826-.93-1.047-1.402-2.444-1.402-4.152v-.361h3.713v.361c0 .935.231 1.66.686 2.154s1.091.734 1.944.734c.836 0 1.472-.196 1.89-.582.414-.383.615-.885.615-1.533 0-.605-.184-1.087-.562-1.476-.405-.415-1.104-.799-2.077-1.142-1.067-.378-1.873-.717-2.465-1.038-2.027-1.088-3.056-2.727-3.056-4.871 0-1.451.452-2.664 1.342-3.606.821-.87 1.921-1.417 3.273-1.63V3.936h2.691v2.762c1.371.259 2.458.897 3.235 1.9.827 1.065 1.246 2.458 1.246 4.14v.36h-3.7v-.36c0-.947-.208-1.694-.618-2.221-.395-.507-.92-.754-1.605-.754-.687 0-1.223.182-1.595.539-.373.36-.554.874-.554 1.574 0 .618.18 1.096.55 1.461.402.393 1.11.778 2.104 1.142 1.057.387 1.906.756 2.522 1.094a6.674 6.674 0 0 1 1.599 1.192l.321.33-.019.011c.298.37.538.783.718 1.231.238.591.359 1.287.359 2.065 0 1.477-.463 2.697-1.377 3.625-.844.857-2.002 1.392-3.447 1.592v2.44h.001zm-1.956-.721h1.235v-2.365l.324-.033c1.425-.145 2.545-.623 3.33-1.42.787-.8 1.17-1.82 1.17-3.119 0-.686-.103-1.291-.307-1.797a4.095 4.095 0 0 0-.868-1.338l-.051-.052a6.016 6.016 0 0 0-1.378-1.009c-.585-.321-1.401-.674-2.424-1.049-1.107-.406-1.879-.832-2.361-1.305-.509-.501-.766-1.165-.766-1.976 0-.893.261-1.597.775-2.093.511-.492 1.215-.741 2.095-.741.909 0 1.64.347 2.174 1.032.455.583.71 1.357.761 2.303h2.26c-.054-1.356-.419-2.477-1.087-3.338-.726-.937-1.732-1.487-3.076-1.679l-.309-.045V4.657h-1.249V7.3l-.319.037c-1.344.155-2.375.631-3.151 1.453-.771.815-1.146 1.833-1.146 3.111 0 1.884.876 3.27 2.678 4.236.552.3 1.346.633 2.362.993 1.093.385 1.864.817 2.353 1.319.509.522.767 1.187.767 1.979 0 .848-.285 1.541-.847 2.061-.556.513-1.357.773-2.38.773-1.052 0-1.884-.325-2.475-.967-.518-.562-.808-1.329-.866-2.282h-2.273c.06 1.361.467 2.474 1.212 3.313.809.912 1.993 1.46 3.517 1.63l.321.035v2.348h.001z" />
    </symbol>
    <symbol id="icon-percent" viewBox="0 0 32 32">
      <path
        d="M16 .562C7.509.562.562 7.509.562 16S7.509 31.438 16 31.438 31.438 24.491 31.438 16 24.491.562 16 .562zm0 29.332C8.281 29.894 2.106 23.719 2.106 16S8.281 2.106 16 2.106 29.894 8.281 29.894 16 23.719 29.894 16 29.894z" />
      <path
        d="M16 32c-4.257 0-8.27-1.669-11.3-4.7S.001 20.256.001 16 1.67 7.73 4.7 4.7C7.731 1.67 11.744.001 16 .001S24.27 1.67 27.3 4.7C30.33 7.73 32 11.744 32 16s-1.669 8.27-4.7 11.3C24.269 30.33 20.256 32 16 32zm0-30.875c-3.957 0-7.687 1.552-10.505 4.37S1.125 12.044 1.125 16s1.552 7.687 4.37 10.505c2.818 2.818 6.549 4.37 10.505 4.37s7.687-1.552 10.505-4.37c2.818-2.818 4.37-6.549 4.37-10.505s-1.552-7.687-4.37-10.505C23.686 2.677 19.956 1.125 16 1.125zm0 29.331c-3.884 0-7.52-1.498-10.239-4.217S1.544 19.884 1.544 16 3.042 8.48 5.761 5.761C8.48 3.042 12.117 1.544 16 1.544s7.52 1.498 10.239 4.217C28.958 8.48 30.456 12.117 30.456 16s-1.498 7.52-4.217 10.239C23.52 28.958 19.884 30.456 16 30.456zm0-27.788c-3.583 0-6.937 1.381-9.444 3.888S2.668 12.417 2.668 16s1.381 6.937 3.888 9.444c2.507 2.507 5.861 3.888 9.444 3.888s6.937-1.381 9.444-3.888c2.507-2.507 3.888-5.861 3.888-9.444s-1.381-6.937-3.888-9.444C22.937 4.049 19.583 2.668 16 2.668z" />
      <path d="M12.188 23.454 18.38 7.973l1.433.573-6.192 15.481-1.433-.573z" />
      <path
        d="m13.934 24.758-2.478-.991 6.61-16.525 2.478.991-6.61 16.525zm-1.015-1.617.389.155 5.775-14.437-.389-.155-5.775 14.437zM14.456 10.597c0-1.235-1.081-2.316-2.316-2.316s-2.316 1.081-2.316 2.316c0 1.235 1.08 2.316 2.316 2.316s2.316-1.08 2.316-2.316z" />
      <path
        d="M12.141 13.475c-.737 0-1.473-.313-2.019-.859s-.859-1.282-.859-2.019c0-1.533 1.345-2.878 2.878-2.878s2.878 1.345 2.878 2.878c0 1.533-1.345 2.878-2.878 2.878zm0-4.632c-.918 0-1.753.836-1.753 1.753s.836 1.753 1.753 1.753c.918 0 1.753-.836 1.753-1.753s-.836-1.753-1.753-1.753zM19.859 19.088c-1.235 0-2.316 1.08-2.316 2.316s1.08 2.316 2.316 2.316c1.235 0 2.316-1.08 2.316-2.316s-1.08-2.316-2.316-2.316z" />
      <path
        d="M19.859 24.282c-.737 0-1.473-.313-2.019-.859s-.86-1.282-.86-2.019c0-.736.313-1.473.86-2.019s1.282-.859 2.019-.859c.736 0 1.473.313 2.019.859s.859 1.282.859 2.019c0 .736-.313 1.473-.859 2.019s-1.282.859-2.019.859zm0-4.632c-.918 0-1.753.836-1.753 1.753s.836 1.753 1.753 1.753c.918 0 1.753-.836 1.753-1.753s-.836-1.753-1.753-1.753z" />
    </symbol>
    <symbol id="icon-barcode" viewBox="0 0 32 32">
      <path
        d="M3.556 0H0v32h3.556V0zM10.667 0H7.111v32h3.556V0zM17.778 0h-3.556v32h3.556V0zM24.889 0h-3.555v32h3.555V0zM32 0h-3.556v32H32V0z" />
    </symbol>
    <symbol id="icon-branching_circuit" viewBox="0 0 45 32">
      <path
        d="M41.05 21.333v-7.111H24.094v-2.667h8.924V-.001H13.385v11.556h8.032v2.667H4.461v7.111H-.001V32H11.6V21.333H7.138v-4.444h14.278v4.444h-4.462V32h10.709V21.333h-3.57v-4.444h14.278v4.444h-4.462V32h10.709V21.333h-3.57zM16.956 3.556h12.493V8H16.956V3.556zM8.924 29.333H2.677V24h6.247v5.333zm16.063 0h-5.354V24h5.354v5.333zm16.956 0h-5.354V24h5.354v5.333z" />
    </symbol>
    <symbol id="icon-two_people" viewBox="0 0 43 32">
      <path
        d="M36.628 13.949h-2.489v15.553h-2.941V13.949H22.77v2.497h5.937V32h7.921V16.446h5.938v-2.497h-5.938zM32.667 12.678c3.487 0 6.323-2.844 6.323-6.339S36.154 0 32.667 0c-3.486 0-6.323 2.844-6.323 6.339s2.837 6.339 6.323 6.339zm0-10.164a3.825 3.825 0 0 1 0 7.649c-2.103 0-3.815-1.716-3.815-3.825s1.712-3.825 3.815-3.825zM13.859 13.949H11.37v15.553H8.429V13.949H.001v2.497h5.937V32h7.921V16.446h5.938v-2.497h-5.938zM9.898 12.678c3.487 0 6.323-2.844 6.323-6.339S13.385 0 9.898 0C6.412 0 3.575 2.844 3.575 6.339s2.837 6.339 6.323 6.339zm0-10.164a3.825 3.825 0 0 1 0 7.649c-2.103 0-3.815-1.716-3.815-3.825s1.712-3.825 3.815-3.825z" />
    </symbol>
  </defs>
</svg>